<?xml version="1.0" encoding="UTF-8" standalone="no"?>
<!-- Generator: Adobe Illustrator 19.1.0, SVG Export Plug-In . SVG Version: 6.00 Build 0)  -->

<svg
   xmlns:dc="http://purl.org/dc/elements/1.1/"
   xmlns:cc="http://creativecommons.org/ns#"
   xmlns:rdf="http://www.w3.org/1999/02/22-rdf-syntax-ns#"
   xmlns:svg="http://www.w3.org/2000/svg"
   xmlns="http://www.w3.org/2000/svg"
   xmlns:sodipodi="http://sodipodi.sourceforge.net/DTD/sodipodi-0.dtd"
   xmlns:inkscape="http://www.inkscape.org/namespaces/inkscape"
   version="1.1"
   id="Capa_1"
   x="0px"
   y="0px"
   viewBox="0 0 478.347 478.347"
   style="enable-background:new 0 0 478.347 478.347;"
   xml:space="preserve"
   sodipodi:docname="map-pin.svg"
   inkscape:version="0.92.4 5da689c313, 2019-01-14"><metadata
   id="metadata3888"><rdf:RDF><cc:Work
       rdf:about=""><dc:format>image/svg+xml</dc:format><dc:type
         rdf:resource="http://purl.org/dc/dcmitype/StillImage" /><dc:title></dc:title></cc:Work></rdf:RDF></metadata><defs
   id="defs3886" /><sodipodi:namedview
   pagecolor="#ffffff"
   bordercolor="#666666"
   borderopacity="1"
   objecttolerance="10"
   gridtolerance="10"
   guidetolerance="10"
   inkscape:pageopacity="0"
   inkscape:pageshadow="2"
   inkscape:window-width="1920"
   inkscape:window-height="1023"
   id="namedview3884"
   showgrid="false"
   inkscape:zoom="1.695422"
   inkscape:cx="104.98861"
   inkscape:cy="239.17349"
   inkscape:window-x="0"
   inkscape:window-y="0"
   inkscape:window-maximized="1"
   inkscape:current-layer="Capa_1" />
<g
   id="g3851"
   style="fill:#ff0000;fill-opacity:0.9934426">
	<g
   id="g3849"
   style="fill:#ff0000;fill-opacity:0.9934426">
		<g
   id="g3847"
   style="fill:#ff0000;fill-opacity:0.9934426">
			<path
   style="fill:#ff0000;fill-opacity:0.9934426"
   d="M305.958,0H172.39C125.962,0,88.19,37.781,88.19,84.209v133.568     c0,35.495,22.11,65.861,53.247,78.23l97.731,182.341l97.741-182.341c31.147-12.369,53.247-42.735,53.247-78.23V84.209     C390.157,37.781,352.395,0,305.958,0z M361.13,217.777c0,30.405-24.748,55.162-55.162,55.162H172.399     c-30.424,0-55.162-24.748-55.162-55.162V84.209c0-30.415,24.748-55.172,55.162-55.172h133.558     c30.424,0,55.162,24.758,55.162,55.172L361.13,217.777L361.13,217.777z"
   id="path3845" />
		</g>
	</g>
</g>
<g
   id="g3853">
</g>
<g
   id="g3855">
</g>
<g
   id="g3857">
</g>
<g
   id="g3859">
</g>
<g
   id="g3861">
</g>
<g
   id="g3863">
</g>
<g
   id="g3865">
</g>
<g
   id="g3867">
</g>
<g
   id="g3869">
</g>
<g
   id="g3871">
</g>
<g
   id="g3873">
</g>
<g
   id="g3875">
</g>
<g
   id="g3877">
</g>
<g
   id="g3879">
</g>
<g
   id="g3881">
</g>
<path
   style="fill:#fffffe;fill-opacity:0.9934426;stroke-width:0.58982366"
   d="m 166.38925,272.30551 c -6.36957,-0.68763 -11.25154,-2.14398 -17.77608,-5.30283 -16.05133,-7.77123 -27.1901,-22.40608 -30.26448,-39.76348 -0.41113,-2.32119 -0.61989,-28.10216 -0.61989,-76.55449 0,-80.88852 -0.16943,-77.060965 3.85275,-87.035791 3.72818,-9.245752 11.69643,-19.160344 19.9786,-24.858624 4.1535,-2.857681 12.08702,-6.410067 17.60388,-7.882472 l 4.86593,-1.298675 h 75.20251 75.20252 l 4.97408,1.359158 c 19.14363,5.230961 33.40962,19.056542 39.37456,38.159026 l 1.65761,5.308413 0.16272,74.449835 c 0.15549,71.14291 0.11301,74.69311 -0.9562,79.92702 -4.77081,23.35349 -24.03687,40.78908 -48.02722,43.46417 -6.55602,0.73104 -138.48399,0.75715 -145.23129,0.0287 z"
   id="path4695"
   inkscape:connector-curvature="0" /></svg>